<svg xmlns="http://www.w3.org/2000/svg" xmlns:xlink="http://www.w3.org/1999/xlink" viewBox="0 0 600 600" width="600" height="600" preserveAspectRatio="xMidYMid meet" style="width: 100%; height: 100%; transform: translate3d(0px, 0px, 0px); content-visibility: visible;" id="Olympic Athlete"><defs><clipPath id="__lottie_element_5551"><rect width="600" height="600" x="0" y="0"/></clipPath><clipPath id="__lottie_element_5569"><path d="M0,0 L200,0 L200,100 L0,100z"/></clipPath><clipPath id="__lottie_element_5579"><path d="M0,0 L200,0 L200,100 L0,100z"/></clipPath><clipPath id="__lottie_element_5589"><path d="M0,0 L200,0 L200,100 L0,100z"/></clipPath><clipPath id="__lottie_element_5599"><path d="M0,0 L200,0 L200,100 L0,100z"/></clipPath><clipPath id="__lottie_element_5609"><path d="M0,0 L200,0 L200,100 L0,100z"/></clipPath><clipPath id="__lottie_element_5619"><path d="M0,0 L200,0 L200,100 L0,100z"/></clipPath><clipPath id="__lottie_element_5629"><path d="M0,0 L200,0 L200,100 L0,100z"/></clipPath><clipPath id="__lottie_element_5639"><path d="M0,0 L200,0 L200,100 L0,100z"/></clipPath><clipPath id="__lottie_element_5649"><path d="M0,0 L200,0 L200,100 L0,100z"/></clipPath></defs><g clip-path="url(#__lottie_element_5551)"><g transform="matrix(0.9049941897392273,0.42542392015457153,-0.42542392015457153,0.9049941897392273,388.76995849609375,288.91363525390625)" opacity="1" style="display: none;"><g opacity="1" transform="matrix(1,0,0,1,92.93399810791016,91.52899932861328)"><path stroke-linecap="butt" stroke-linejoin="miter" fill-opacity="0" stroke-miterlimit="10" stroke="rgb(60,140,251)" stroke-opacity="1" stroke-width="3" d=" M-27.631999969482422,-71.1449966430664 C4.785999774932861,-84.02899932861328 42.86399841308594,-72.8290023803711 62.729000091552734,-42.513999938964844 C85.43399810791016,-7.869999885559082 75.75399780273438,38.62099838256836 41.10900115966797,61.32500076293945 C6.465000152587891,84.02899932861328 -40.0260009765625,74.3489990234375 -62.72999954223633,39.70500183105469 C-85.43399810791016,5.059999942779541 -75.75399780273438,-41.43000030517578 -41.11000061035156,-64.13400268554688"/></g></g><g transform="matrix(-0.32363876700401306,0.9461807012557983,-0.9461807012557983,-0.32363876700401306,318.26507568359375,351.9333190917969)" opacity="1" style="display: none;"><g opacity="1" transform="matrix(1,0,0,1,92.93399810791016,91.52899932861328)"><path stroke-linecap="butt" stroke-linejoin="miter" fill-opacity="0" stroke-miterlimit="10" stroke="rgb(60,140,251)" stroke-opacity="1" stroke-width="3" d=" M-41.11000061035156,-64.13400268554688 C-75.75399780273438,-41.43000030517578 -85.43399810791016,5.059999942779541 -62.72999954223633,39.70500183105469 C-40.0260009765625,74.3489990234375 6.465000152587891,84.02899932861328 41.10900115966797,61.32500076293945 C75.75399780273438,38.62099838256836 85.43399810791016,-7.869999885559082 62.729000091552734,-42.513999938964844 C42.86399841308594,-72.8290023803711 4.785999774932861,-84.02899932861328 -27.631999969482422,-71.1449966430664"/></g></g><g transform="matrix(1,0,0,1,369.72698974609375,262.0409851074219)" opacity="1" style="display: none;"><path stroke-linecap="butt" stroke-linejoin="miter" fill-opacity="0" stroke-miterlimit="10" stroke="rgb(60,140,251)" stroke-opacity="1" stroke-width="3" d=" M69.87999725341797,14.62399959564209 C69.87999725341797,14.62399959564209 65.64900207519531,14.614999771118164 59.92499923706055,14.604000091552734"/></g><g transform="matrix(0.949999988079071,0,0,0.949999988079071,234.65670776367188,293.1036376953125)" opacity="1" style="display: none;"><g opacity="1" transform="matrix(1,0,0,1,149.4530029296875,-192.5469970703125)"><path fill="rgb(64,192,117)" fill-opacity="1" d=" M0,-17.452999114990234 C9.632309913635254,-17.452999114990234 17.452999114990234,-9.632309913635254 17.452999114990234,0 C17.452999114990234,9.632309913635254 9.632309913635254,17.452999114990234 0,17.452999114990234 C-9.632309913635254,17.452999114990234 -17.452999114990234,9.632309913635254 -17.452999114990234,0 C-17.452999114990234,-9.632309913635254 -9.632309913635254,-17.452999114990234 0,-17.452999114990234z"/></g></g><g transform="matrix(-0.8199314475059509,-0.572461724281311,0.572461724281311,-0.8199314475059509,404.8170471191406,349.5292053222656)" opacity="1" style="display: block;"><g opacity="1" transform="matrix(1,0,0,1,0,0)"><g opacity="1" transform="matrix(1,0,0,1,75.04499816894531,16.915000915527344)"><path fill="rgb(255,0,0)" fill-opacity="1" d=" M14.994000434875488,-0.414000004529953 C15.222999572753906,7.867000102996826 8.694999694824219,14.765000343322754 0.4129999876022339,14.994000434875488 C-7.868000030517578,15.222999572753906 -14.765999794006348,8.694000244140625 -14.994999885559082,0.414000004529953 C-15.222999572753906,-7.868000030517578 -8.694999694824219,-14.765999794006348 -0.414000004529953,-14.994999885559082 C7.867000102996826,-15.222999572753906 14.765000343322754,-8.694999694824219 14.994000434875488,-0.414000004529953z"/></g><g opacity="1" transform="matrix(1,0,0,1,118.84100341796875,46.18199920654297)"><path fill="rgb(255,0,0)" fill-opacity="1" d=" M13.09000015258789,-11.614999771118164 C19.5049991607666,-4.386000156402588 18.8439998626709,6.676000118255615 11.61400032043457,13.09000015258789 C4.385000228881836,19.503999710083008 -6.676000118255615,18.843000411987305 -13.090999603271484,11.61400032043457 C-19.5049991607666,4.383999824523926 -18.8439998626709,-6.676000118255615 -11.61400032043457,-13.09000015258789 C-4.385000228881836,-19.503999710083008 6.676000118255615,-18.8439998626709 13.09000015258789,-11.614999771118164z"/></g><g opacity="1" transform="matrix(1,0,0,1,97.90399932861328,32.68899917602539)"><path fill="rgb(0,0,0)" fill-opacity="1" d=" M30.663000106811523,-1.059999942779541 C30.895000457763672,-0.8989999890327454 11.21399974822998,28.045000076293945 11.21399974822998,28.045000076293945 C11.21399974822998,28.045000076293945 -30.895000457763672,-3.1070001125335693 -30.895000457763672,-3.1070001125335693 C-30.895000457763672,-3.1070001125335693 -14.229000091552734,-28.045000076293945 -14.229000091552734,-28.045000076293945 C-14.229000091552734,-28.045000076293945 30.663000106811523,-1.059999942779541 30.663000106811523,-1.059999942779541z"/></g></g><g opacity="1" transform="matrix(0.9901220798492432,-0.14020805060863495,0.14020805060863495,0.9901220798492432,-1.7313232421875,10.679487228393555)"><g opacity="1" transform="matrix(1,0,0,1,11.670000076293945,45.98699951171875)"><path fill="rgb(255,0,0)" fill-opacity="1" d=" M5.052999973297119,-8.630000114440918 C9.819000244140625,-5.840000152587891 11.420000076293945,0.28600001335144043 8.630000114440918,5.052000045776367 C5.839000225067139,9.817999839782715 -0.2849999964237213,11.420000076293945 -5.051000118255615,8.630000114440918 C-9.817999839782715,5.840000152587891 -11.420999526977539,-0.28600001335144043 -8.630000114440918,-5.052000045776367 C-5.840000152587891,-9.817999839782715 0.28700000047683716,-11.420000076293945 5.052999973297119,-8.630000114440918z"/></g><g opacity="1" transform="matrix(1,0,0,1,74.96900177001953,17.381000518798828)"><path fill="rgb(255,0,0)" fill-opacity="1" d=" M7.578000068664551,-12.944999694824219 C14.72700023651123,-8.758999824523926 17.1299991607666,0.42899999022483826 12.944999694824219,7.578000068664551 C8.758999824523926,14.72700023651123 -0.42899999022483826,17.1299991607666 -7.578000068664551,12.944999694824219 C-14.727999687194824,8.758999824523926 -17.1299991607666,-0.42800000309944153 -12.944999694824219,-7.578000068664551 C-8.758999824523926,-14.72700023651123 0.42899999022483826,-17.131000518798828 7.578000068664551,-12.944999694824219z"/></g><g opacity="1" transform="matrix(1,0,0,1,44.347999572753906,29.402000427246094)"><path fill="rgb(0,0,0)" fill-opacity="1" d=" M24.44300079345703,-25.69099998474121 C24.44300079345703,-25.69099998474121 36.79600143432617,1.6449999809265137 36.79600143432617,1.6449999809265137 C36.79600143432617,1.6449999809265137 -28.562000274658203,25.69099998474121 -28.562000274658203,25.69099998474121 C-28.562000274658203,25.69099998474121 -36.79600143432617,7.4720001220703125 -36.79600143432617,7.4720001220703125 C-36.79600143432617,7.4720001220703125 24.44300079345703,-25.69099998474121 24.44300079345703,-25.69099998474121z"/></g></g></g><g transform="matrix(0.0245516374707222,0.9996985793113708,-0.9996985793113708,0.0245516374707222,322.1781311035156,267.16229248046875)" opacity="1" style="display: block;"><g opacity="1" transform="matrix(1,0,0,1,0,0)"><g opacity="1" transform="matrix(1,0,0,1,33.24100112915039,28.615999221801758)"><path fill="rgb(255,0,0)" fill-opacity="1" d=" M-9.461999893188477,-23.139999389648438 C3.318000078201294,-28.365999221801758 17.915000915527344,-22.242000579833984 23.141000747680664,-9.461999893188477 C28.365999221801758,3.318000078201294 22.242000579833984,17.915000915527344 9.461999893188477,23.139999389648438 C-3.318000078201294,28.365999221801758 -17.913999557495117,22.242000579833984 -23.139999389648438,9.461999893188477 C-28.365999221801758,-3.318000078201294 -22.242000579833984,-17.913999557495117 -9.461999893188477,-23.139999389648438z"/></g><g opacity="1" transform="matrix(1,0,0,1,108.12000274658203,57.720001220703125)"><path fill="rgb(255,0,0)" fill-opacity="1" d=" M-6.623000144958496,-16.198999404907227 C2.322999954223633,-19.85700035095215 12.541000366210938,-15.569999694824219 16.197999954223633,-6.624000072479248 C19.856000900268555,2.322000026702881 15.569999694824219,12.539999961853027 6.624000072479248,16.197999954223633 C-2.322000026702881,19.85700035095215 -12.539999961853027,15.569000244140625 -16.19700050354004,6.622000217437744 C-19.854999542236328,-2.322999954223633 -15.569000244140625,-12.541000366210938 -6.623000144958496,-16.198999404907227z"/></g><g opacity="1" transform="matrix(1,0,0,1,69.3239974975586,39.67599868774414)"><path fill="rgb(0,0,0)" fill-opacity="1" d=" M-45.137001037597656,12.234999656677246 C-45.137001037597656,12.234999656677246 -27.027999877929688,-34.35499954223633 -27.027999877929688,-34.35499954223633 C-27.027999877929688,-34.35499954223633 45.137001037597656,1.7330000400543213 45.137001037597656,1.7330000400543213 C45.137001037597656,1.7330000400543213 32.457000732421875,34.35499954223633 32.457000732421875,34.35499954223633 C32.457000732421875,34.35499954223633 -45.137001037597656,12.234999656677246 -45.137001037597656,12.234999656677246z"/></g></g><g opacity="1" transform="matrix(-0.1762048751115799,-0.9843535423278809,0.9843535423278809,-0.1762048751115799,70.2594223022461,174.2793731689453)"><g opacity="1" transform="matrix(1,0,0,1,11.47700023651123,109.68199920654297)"><path fill="rgb(255,0,0)" fill-opacity="1" d=" M9.496999740600586,3.131999969482422 C7.767000198364258,8.376999855041504 2.11299991607666,11.22700023651123 -3.131999969482422,9.496000289916992 C-8.376999855041504,7.767000198364258 -11.22700023651123,2.1110000610351562 -9.496999740600586,-3.134000062942505 C-7.767000198364258,-8.378999710083008 -2.111999988555908,-11.22700023651123 3.132999897003174,-9.498000144958496 C8.376999855041504,-7.767000198364258 11.22700023651123,-2.111999988555908 9.496999740600586,3.131999969482422z"/></g><g opacity="1" transform="matrix(1,0,0,1,108.12000274658203,57.720001220703125)"><path fill="rgb(255,0,0)" fill-opacity="1" d=" M16.6200008392334,5.480999946594238 C13.593000411987305,14.65999984741211 3.697000026702881,19.645999908447266 -5.48199987411499,16.618999481201172 C-14.65999984741211,13.590999603271484 -19.64699935913086,3.697999954223633 -16.618999481201172,-5.480999946594238 C-13.590999603271484,-14.65999984741211 -3.696000099182129,-19.645999908447266 5.48199987411499,-16.618999481201172 C14.66100025177002,-13.590999603271484 19.64699935913086,-3.697999954223633 16.6200008392334,5.480999946594238z"/></g><g opacity="1" transform="matrix(1,0,0,1,61.07400131225586,80.4530029296875)"><path fill="rgb(0,0,0)" fill-opacity="1" d=" M38.5620002746582,-38.51499938964844 C38.5620002746582,-38.51499938964844 55.33399963378906,-7.321000099182129 55.33399963378906,-7.321000099182129 C55.33399963378906,-7.321000099182129 -45.89500045776367,38.51499938964844 -45.89500045776367,38.51499938964844 C-45.89500045776367,38.51499938964844 -55.33399963378906,20.961000442504883 -55.33399963378906,20.961000442504883 C-55.33399963378906,20.961000442504883 38.5620002746582,-38.51499938964844 38.5620002746582,-38.51499938964844z"/></g></g></g><g transform="matrix(0.0245516374707222,-0.9996985793113708,0.9996985793113708,0.0245516374707222,264.6796569824219,448.1497497558594)" opacity="1" style="display: block;"><g opacity="1" transform="matrix(1,0,0,1,0,0)"><g opacity="1" transform="matrix(1,0,0,1,148.30499267578125,25.812999725341797)"><path fill="rgb(255,0,0)" fill-opacity="1" d=" M24.97800064086914,1.059999942779541 C24.39299964904785,14.854999542236328 12.734999656677246,25.562999725341797 -1.0609999895095825,24.976999282836914 C-14.854999542236328,24.392000198364258 -25.56399917602539,12.734999656677246 -24.97800064086914,-1.059999942779541 C-24.39299964904785,-14.854999542236328 -12.734999656677246,-25.562999725341797 1.059999942779541,-24.97800064086914 C14.854000091552734,-24.392000198364258 25.56399917602539,-12.734999656677246 24.97800064086914,1.059999942779541z"/></g><g opacity="1" transform="matrix(1,0,0,1,90.60399627685547,81.70999908447266)"><path fill="rgb(255,0,0)" fill-opacity="1" d=" M17.483999252319336,0.7419999837875366 C17.073999404907227,10.39799976348877 8.913999557495117,17.893999099731445 -0.7419999837875366,17.483999252319336 C-10.39799976348877,17.073999404907227 -17.893999099731445,8.913999557495117 -17.483999252319336,-0.7419999837875366 C-17.075000762939453,-10.39900016784668 -8.913999557495117,-17.893999099731445 0.7419999837875366,-17.485000610351562 C10.39799976348877,-17.073999404907227 17.893999099731445,-8.913999557495117 17.483999252319336,0.7419999837875366z"/></g><g opacity="1" transform="matrix(1,0,0,1,122.06099700927734,51.06999969482422)"><path fill="rgb(0,0,0)" fill-opacity="1" d=" M8.854999542236328,-43.20899963378906 C8.854999542236328,-43.20899963378906 43.632999420166016,-7.307000160217285 43.632999420166016,-7.307000160217285 C43.632999420166016,-7.307000160217285 -19.2810001373291,43.20899963378906 -19.2810001373291,43.20899963378906 C-19.2810001373291,43.20899963378906 -43.632999420166016,18.070999145507812 -43.632999420166016,18.070999145507812 C-43.632999420166016,18.070999145507812 8.854999542236328,-43.20899963378906 8.854999542236328,-43.20899963378906z"/></g></g><g opacity="1" transform="matrix(-0.1762048751115799,0.9843535423278809,-0.9843535423278809,-0.1762048751115799,187.25967407226562,6.760345458984375)"><g opacity="1" transform="matrix(1,0,0,1,10.555999755859375,156.7220001220703)"><path fill="rgb(255,0,0)" fill-opacity="1" d=" M9.982999801635742,0.5839999914169312 C9.65999984741211,6.0980000495910645 4.928999900817871,10.305999755859375 -0.5839999914169312,9.982000350952148 C-6.0980000495910645,9.659000396728516 -10.305999755859375,4.928999900817871 -9.982999801635742,-0.5849999785423279 C-9.65999984741211,-6.098999977111816 -4.928999900817871,-10.305999755859375 0.5849999785423279,-9.982000350952148 C6.0980000495910645,-9.659000396728516 10.305999755859375,-4.929999828338623 9.982999801635742,0.5839999914169312z"/></g><g opacity="1" transform="matrix(1,0,0,1,90.58399963378906,81.6520004272461)"><path fill="rgb(255,0,0)" fill-opacity="1" d=" M17.469999313354492,1.0219999551773071 C16.905000686645508,10.670000076293945 8.62600040435791,18.03499984741211 -1.0230000019073486,17.4689998626709 C-10.670999526977539,16.905000686645508 -18.03499984741211,8.62600040435791 -17.469999313354492,-1.0230000019073486 C-16.905000686645508,-10.670999526977539 -8.62600040435791,-18.03499984741211 1.0230000019073486,-17.469999313354492 C10.67199993133545,-16.905000686645508 18.03499984741211,-8.62600040435791 17.469999313354492,1.0219999551773071z"/></g><g opacity="1" transform="matrix(1,0,0,1,52.720001220703125,116.66400146484375)"><path fill="rgb(0,0,0)" fill-opacity="1" d=" M25.604999542236328,-48.08000183105469 C25.604999542236328,-48.08000183105469 49.83599853515625,-22.249000549316406 49.83599853515625,-22.249000549316406 C49.83599853515625,-22.249000549316406 -36.19900131225586,48.08000183105469 -36.19900131225586,48.08000183105469 C-36.19900131225586,48.08000183105469 -49.83599853515625,33.54399871826172 -49.83599853515625,33.54399871826172 C-49.83599853515625,33.54399871826172 25.604999542236328,-48.08000183105469 25.604999542236328,-48.08000183105469z"/></g></g></g><g transform="matrix(-0.8199314475059509,0.572461724281311,-0.572461724281311,-0.8199314475059509,362.0956726074219,249.82350158691406)" opacity="1" style="display: block;"><g opacity="1" transform="matrix(1,0,0,1,0,0)"><g opacity="1" transform="matrix(1,0,0,1,64.1259994506836,49.48699951171875)"><path fill="rgb(255,0,0)" fill-opacity="1" d=" M-14.979999542236328,0.7689999938011169 C-15.406000137329102,-7.504000186920166 -9.043000221252441,-14.555999755859375 -0.7699999809265137,-14.980999946594238 C7.502999782562256,-15.406000137329102 14.555000305175781,-9.043000221252441 14.979999542236328,-0.7699999809265137 C15.406000137329102,7.502999782562256 9.043000221252441,14.555000305175781 0.7699999809265137,14.979999542236328 C-7.502999782562256,15.406000137329102 -14.555000305175781,9.041999816894531 -14.979999542236328,0.7689999938011169z"/></g><g opacity="1" transform="matrix(1,0,0,1,19.645000457763672,21.268999099731445)"><path fill="rgb(255,0,0)" fill-opacity="1" d=" M-12.8100004196167,11.92199993133545 C-19.395000457763672,4.8470001220703125 -18.996999740600586,-6.22599983215332 -11.920999526977539,-12.810999870300293 C-4.8470001220703125,-19.395000457763672 6.22599983215332,-18.996999740600586 12.810999870300293,-11.92199993133545 C19.395000457763672,-4.8470001220703125 18.99799919128418,6.22599983215332 11.92199993133545,12.8100004196167 C4.8470001220703125,19.395000457763672 -6.22599983215332,18.996999740600586 -12.8100004196167,11.92199993133545z"/></g><g opacity="1" transform="matrix(1,0,0,1,40.94499969482422,34.222999572753906)"><path fill="rgb(0,0,0)" fill-opacity="1" d=" M-30.676000595092773,1.8240000009536743 C-30.910999298095703,1.6679999828338623 -11.92300033569336,-27.733999252319336 -11.92300033569336,-27.733999252319336 C-11.92300033569336,-27.733999252319336 30.910999298095703,2.4079999923706055 30.910999298095703,2.4079999923706055 C30.910999298095703,2.4079999923706055 14.845000267028809,27.733999252319336 14.845000267028809,27.733999252319336 C14.845000267028809,27.733999252319336 -30.676000595092773,1.8240000009536743 -30.676000595092773,1.8240000009536743z"/></g></g><g opacity="1" transform="matrix(0.9901220798492432,0.14020805060863495,-0.14020805060863495,0.9901220798492432,7.520580291748047,-8.455604553222656)"><g opacity="1" transform="matrix(1,0,0,1,122.34600067138672,11.579999923706055)"><path fill="rgb(255,0,0)" fill-opacity="1" d=" M-3.677999973297119,9.298999786376953 C-8.814000129699707,7.26800012588501 -11.329999923706055,1.4579999446868896 -9.298999786376953,-3.677999973297119 C-7.26800012588501,-8.814000129699707 -1.4570000171661377,-11.329999923706055 3.677999973297119,-9.298999786376953 C8.814000129699707,-7.26800012588501 11.331000328063965,-1.4579999446868896 9.300000190734863,3.677999973297119 C7.26800012588501,8.814000129699707 1.4589999914169312,11.329999923706055 -3.677999973297119,9.298999786376953z"/></g><g opacity="1" transform="matrix(1,0,0,1,64.14800262451172,49.5)"><path fill="rgb(255,0,0)" fill-opacity="1" d=" M-5.517000198364258,13.947999954223633 C-13.220000267028809,10.901000022888184 -16.996000289916992,2.187000036239624 -13.949000358581543,-5.517000198364258 C-10.902000427246094,-13.220000267028809 -2.187000036239624,-16.9950008392334 5.517000198364258,-13.947999954223633 C13.220000267028809,-10.902000427246094 16.996000289916992,-2.187000036239624 13.949000358581543,5.517000198364258 C10.902000427246094,13.220000267028809 2.187000036239624,16.9950008392334 -5.517000198364258,13.947999954223633z"/></g><g opacity="1" transform="matrix(1,0,0,1,91.88400268554688,32.63800048828125)"><path fill="rgb(0,0,0)" fill-opacity="1" d=" M-19.54599952697754,29.43000030517578 C-19.54599952697754,29.43000030517578 -35.92300033569336,4.296000003814697 -35.92300033569336,4.296000003814697 C-35.92300033569336,4.296000003814697 25.007999420166016,-29.43000030517578 25.007999420166016,-29.43000030517578 C25.007999420166016,-29.43000030517578 35.92300033569336,-12.678999900817871 35.92300033569336,-12.678999900817871 C35.92300033569336,-12.678999900817871 -19.54599952697754,29.43000030517578 -19.54599952697754,29.43000030517578z"/></g></g></g><g transform="matrix(0.9640606045722961,0.2656823992729187,-0.2656823992729187,0.9640606045722961,361.3504333496094,167.48660278320312)" opacity="1" style="display: block;"><path fill="rgb(0,0,0)" fill-opacity="1" d=" M45.25,22.75 C45.25,35.17599868774414 35.176998138427734,45.25 22.75,45.25 C10.322999954223633,45.25 0.25,35.17599868774414 0.25,22.75 C0.25,10.324000358581543 10.322999954223633,0.25 22.75,0.25 C35.176998138427734,0.25 45.25,10.324000358581543 45.25,22.75z"/></g><g clip-path="url(#__lottie_element_5569)" transform="matrix(1,0,0,1,101,260.00201416015625)" opacity="1" style="display: none;"><g transform="matrix(1,0,0,1,118.5,191.5)" opacity="1" style="display: block;"><path stroke-linecap="butt" stroke-linejoin="miter" fill-opacity="0" stroke-miterlimit="4" stroke="rgb(251,188,5)" stroke-opacity="1" stroke-width="3" d=" M-68.9990005493164,-132 C-70.90899658203125,-132 -72,-132 -72,-132"/></g><g transform="matrix(1,0,0,1,141.5,174.5)" opacity="1" style="display: block;"><path stroke-linecap="butt" stroke-linejoin="miter" fill-opacity="0" stroke-miterlimit="4" stroke="rgb(251,188,5)" stroke-opacity="1" stroke-width="3" d="M0 0"/></g></g><g clip-path="url(#__lottie_element_5579)" transform="matrix(1,0,0,1,159,183.0019989013672)" opacity="1" style="display: none;"><g transform="matrix(1,0,0,1,118.5,191.5)" opacity="1" style="display: block;"><path stroke-linecap="butt" stroke-linejoin="miter" fill-opacity="0" stroke-miterlimit="4" stroke="rgb(251,188,5)" stroke-opacity="1" stroke-width="3" d=" M-69.0479965209961,-132 C-70.927001953125,-132 -72,-132 -72,-132"/></g><g transform="matrix(1,0,0,1,141.5,174.5)" opacity="1" style="display: block;"><path stroke-linecap="butt" stroke-linejoin="miter" fill-opacity="0" stroke-miterlimit="4" stroke="rgb(251,188,5)" stroke-opacity="1" stroke-width="3" d="M0 0"/></g></g><g clip-path="url(#__lottie_element_5589)" transform="matrix(1,0,0,1,216,285.00201416015625)" opacity="1" style="display: none;"><g transform="matrix(1,0,0,1,118.5,191.5)" opacity="1" style="display: block;"><path stroke-linecap="butt" stroke-linejoin="miter" fill-opacity="0" stroke-miterlimit="4" stroke="rgb(251,188,5)" stroke-opacity="1" stroke-width="3" d=" M-69.10299682617188,-132 C-70.9489974975586,-132 -72,-132 -72,-132"/></g><g transform="matrix(1,0,0,1,141.5,174.5)" opacity="1" style="display: block;"><path stroke-linecap="butt" stroke-linejoin="miter" fill-opacity="0" stroke-miterlimit="4" stroke="rgb(251,188,5)" stroke-opacity="1" stroke-width="3" d="M0 0"/></g></g><g clip-path="url(#__lottie_element_5599)" transform="matrix(1,0,0,1,181,181.0019989013672)" opacity="1" style="display: none;"><g transform="matrix(1,0,0,1,118.5,191.5)" opacity="1" style="display: block;"><path stroke-linecap="butt" stroke-linejoin="miter" fill-opacity="0" stroke-miterlimit="4" stroke="rgb(251,188,5)" stroke-opacity="1" stroke-width="3" d=" M-69.08999633789062,-132 C-70.94300079345703,-132 -72,-132 -72,-132"/></g><g transform="matrix(1,0,0,1,141.5,174.5)" opacity="1" style="display: block;"><path stroke-linecap="butt" stroke-linejoin="miter" fill-opacity="0" stroke-miterlimit="4" stroke="rgb(251,188,5)" stroke-opacity="1" stroke-width="3" d="M0 0"/></g></g><g clip-path="url(#__lottie_element_5609)" transform="matrix(1,0,0,1,101,288.00201416015625)" opacity="1" style="display: none;"><g transform="matrix(1,0,0,1,118.5,191.5)" opacity="1" style="display: block;"><path stroke-linecap="butt" stroke-linejoin="miter" fill-opacity="0" stroke-miterlimit="4" stroke="rgb(251,188,5)" stroke-opacity="1" stroke-width="3" d=" M-61.19200134277344,-132 C-67.68299865722656,-132 -72,-132 -72,-132"/></g><g transform="matrix(1,0,0,1,141.5,174.5)" opacity="1" style="display: block;"><path stroke-linecap="butt" stroke-linejoin="miter" fill-opacity="0" stroke-miterlimit="4" stroke="rgb(251,188,5)" stroke-opacity="1" stroke-width="3" d="M0 0"/></g></g><g clip-path="url(#__lottie_element_5619)" transform="matrix(1,0,0,1,132,222.00201416015625)" opacity="1" style="display: none;"><g transform="matrix(1,0,0,1,118.5,191.5)" opacity="1" style="display: block;"><path stroke-linecap="butt" stroke-linejoin="miter" fill-opacity="0" stroke-miterlimit="4" stroke="rgb(251,188,5)" stroke-opacity="1" stroke-width="3" d=" M-69.10299682617188,-132 C-70.9489974975586,-132 -72,-132 -72,-132"/></g><g transform="matrix(1,0,0,1,141.5,174.5)" opacity="1" style="display: block;"><path stroke-linecap="butt" stroke-linejoin="miter" fill-opacity="0" stroke-miterlimit="4" stroke="rgb(251,188,5)" stroke-opacity="1" stroke-width="3" d="M0 0"/></g></g><g clip-path="url(#__lottie_element_5629)" transform="matrix(1,0,0,1,180,314.00201416015625)" opacity="1" style="display: none;"><g transform="matrix(1,0,0,1,118.5,191.5)" opacity="1" style="display: block;"><path stroke-linecap="butt" stroke-linejoin="miter" fill-opacity="0" stroke-miterlimit="4" stroke="rgb(251,188,5)" stroke-opacity="1" stroke-width="3" d=" M-61.27000045776367,-132 C-67.71700286865234,-132 -72,-132 -72,-132"/></g><g transform="matrix(1,0,0,1,141.5,174.5)" opacity="1" style="display: block;"><path stroke-linecap="butt" stroke-linejoin="miter" fill-opacity="0" stroke-miterlimit="4" stroke="rgb(251,188,5)" stroke-opacity="1" stroke-width="3" d="M0 0"/></g></g><g clip-path="url(#__lottie_element_5639)" transform="matrix(1,0,0,1,166,276.00201416015625)" opacity="1" style="display: block;"><g transform="matrix(1,0,0,1,118.5,191.5)" opacity="1" style="display: block;"><path stroke-linecap="butt" stroke-linejoin="miter" fill-opacity="0" stroke-miterlimit="4" stroke="rgb(251,188,5)" stroke-opacity="1" stroke-width="3" d=" M-2,-132 C-2,-132 -56.04399871826172,-132 -69.15899658203125,-132"/></g><g transform="matrix(1,0,0,1,141.5,174.5)" opacity="1" style="display: block;"><path stroke-linecap="butt" stroke-linejoin="miter" fill-opacity="0" stroke-miterlimit="4" stroke="rgb(251,188,5)" stroke-opacity="1" stroke-width="3" d=" M-24.524999618530273,-132 C-44.9900016784668,-132 -72,-132 -72,-132"/></g></g><g clip-path="url(#__lottie_element_5649)" transform="matrix(1,0,0,1,136,192.0019989013672)" opacity="1" style="display: block;"><g transform="matrix(1,0,0,1,118.5,191.5)" opacity="1" style="display: block;"><path stroke-linecap="butt" stroke-linejoin="miter" fill-opacity="0" stroke-miterlimit="4" stroke="rgb(251,188,5)" stroke-opacity="1" stroke-width="3" d=" M-2,-132 C-2,-132 -3.1610000133514404,-132 -5.184000015258789,-132"/></g><g transform="matrix(1,0,0,1,141.5,174.5)" opacity="1" style="display: block;"><path stroke-linecap="butt" stroke-linejoin="miter" fill-opacity="0" stroke-miterlimit="4" stroke="rgb(251,188,5)" stroke-opacity="1" stroke-width="3" d=" M-2,-132 C-2,-132 -29.670000076293945,-132 -50.21699905395508,-132"/></g></g></g></svg>